<svg xmlns="http://www.w3.org/2000/svg" viewBox="0 0 40.93 27.68"><defs><style>.cls-1{fill:#77af0b;}</style></defs><title>delivery1</title><g id="Layer_2" data-name="Layer 2"><g id="Layer_2-2" data-name="Layer 2"><path class="cls-1" d="M40.6,11.72,39.26,8.43c-.39-1-.77-1.93-1.15-2.89l-.43-1.07c-.37-.91-.89-1.85-2-2l-.25,0H32.15V.25h-24V1.42H31V12.74h8.46v7.88A1.33,1.33,0,0,1,38.13,22H37a4.87,4.87,0,0,0-9.68,0H16.12a4.9,4.9,0,1,0,0,1.17H27.28a4.87,4.87,0,0,0,9.68,0h1.17a2.5,2.5,0,0,0,2.5-2.5v-4.4a41,41,0,0,0-.08-4.48Zm-8.45-.16V3.73h3.29c.72,0,1.07.77,1.39,1.64.2.54.42,1.08.64,1.62l1.86,4.57Zm3.58,11a3.61,3.61,0,1,1-3.61-3.6A3.61,3.61,0,0,1,35.73,22.53Zm-20.84,0a3.61,3.61,0,1,1-3.6-3.6A3.61,3.61,0,0,1,14.89,22.53Z"/><path class="cls-1" d="M32.12,27.68a5.13,5.13,0,0,1-5-4.31H16.34a5.15,5.15,0,1,1,0-1.67H27.07a5.11,5.11,0,0,1,10.1,0h1a1.08,1.08,0,0,0,1.07-1.08V13H30.74V1.67H7.88V0H32.4V2.23h3l.28,0c1.23.13,1.8,1.15,2.19,2.13l.43,1.07c.38,1,.76,1.92,1.16,2.88l1.43,3.53-.1,0c.05.49.05,1.58.05,4.28v4.44a2.75,2.75,0,0,1-2.75,2.75h-1A5.13,5.13,0,0,1,32.12,27.68ZM15.9,22.87H27.51l0,.22a4.62,4.62,0,0,0,9.18,0l0-.22h1.4a2.25,2.25,0,0,0,2.25-2.25v-4.4c0-3,0-4.1-.07-4.43l-.05-.2h0L39,8.52c-.39-1-.77-1.92-1.16-2.89l-.42-1.06c-.36-.89-.82-1.72-1.78-1.82l-.23,0H31.9V.5H8.38v.67H31.23V12.49H39.7v8.13a1.57,1.57,0,0,1-1.57,1.58h-1.4l0-.22a4.62,4.62,0,0,0-9.18,0l0,.22H15.9l0-.22a4.65,4.65,0,1,0,0,1.11Zm16.22,3.52A3.86,3.86,0,1,1,36,22.53,3.86,3.86,0,0,1,32.12,26.39Zm0-7.21a3.36,3.36,0,1,0,3.36,3.35A3.35,3.35,0,0,0,32.12,19.18ZM11.29,26.39a3.86,3.86,0,1,1,3.85-3.86A3.86,3.86,0,0,1,11.29,26.39Zm0-7.21a3.36,3.36,0,1,0,3.35,3.35A3.36,3.36,0,0,0,11.29,19.18ZM39.7,11.81H31.9V3.48h3.54c1,0,1.36,1.08,1.62,1.8.19.53.4,1,.62,1.56Zm-7.3-.5H39L37.23,7.08C37,6.51,36.79,6,36.59,5.46,36.25,4.52,36,4,35.44,4h-3Z"/><rect class="cls-1" x="4.75" y="5.65" width="3.7" height="1.29"/><path class="cls-1" d="M8.7,7.19H4.5V5.4H8.7ZM5,6.69H8.2V5.9H5Z"/><rect class="cls-1" x="3.01" y="10.23" width="5.44" height="1.29"/><path class="cls-1" d="M8.7,11.77H2.76V10H8.7Zm-5.44-.5H8.2v-.79H3.26Z"/><rect class="cls-1" x="0.25" y="14.88" width="8.2" height="1.29"/><path class="cls-1" d="M8.7,16.42H0V14.63H8.7Zm-8.2-.5H8.2v-.79H.5Z"/></g></g></svg>