<svg xmlns="http://www.w3.org/2000/svg" viewBox="0 0 21.77 26.02"><defs><style>.cls-1{fill:none;stroke:#939391;stroke-miterlimit:10;stroke-width:1.5px;}</style></defs><title>Asset 11</title><g id="Layer_2" data-name="Layer 2"><g id="Layer_2-2" data-name="Layer 2"><path class="cls-1" d="M20.58,19c-1.19-2.19-5.61-3.39-7-1-.07.12-.67,1.29-.83,1.17A19.85,19.85,0,0,1,5.59,9.36C5.53,9.18,6.83,9,7,8.94c2.8-.65,3-5.2,1.22-7a4.67,4.67,0,0,0-4.91-.82A5,5,0,0,0,.75,5.77,20.64,20.64,0,0,0,4.52,17.45c2.56,3.45,7,6.93,11.32,7.71a5.41,5.41,0,0,0,2.37,0C20.57,24.51,21.71,21.07,20.58,19Z"/></g></g></svg>