<svg xmlns="http://www.w3.org/2000/svg" viewBox="0 0 28.9 28.58"><defs><style>.cls-1{fill:none;}.cls-1,.cls-2,.cls-3{stroke:#939391;stroke-miterlimit:10;}.cls-1,.cls-3{stroke-width:1.7px;}.cls-2,.cls-3{fill:#939391;}</style></defs><title>Asset 11</title><g id="Layer_2" data-name="Layer 2"><g id="Layer_4" data-name="Layer 4"><path class="cls-1" d="M15.59,1.64,17,1.07A3,3,0,0,1,20.8,2.46l.7,1.33a3,3,0,0,0,1.74,1.47l1.43.46a3,3,0,0,1,2,3.51l-.31,1.47A3,3,0,0,0,26.78,13l.8,1.27a3,3,0,0,1-.7,4l-1.19.92a3,3,0,0,0-1.14,2l-.2,1.48a3,3,0,0,1-3.11,2.61l-1.5-.06a3,3,0,0,0-2.15.79l-1.11,1a3,3,0,0,1-4.06,0l-1.11-1a3,3,0,0,0-2.15-.79l-1.5.06A3,3,0,0,1,4.55,22.6l-.2-1.48a3,3,0,0,0-1.14-2L2,18.22a3,3,0,0,1-.7-4L2.12,13a3,3,0,0,0,.39-2.25L2.19,9.23a3,3,0,0,1,2-3.51l1.43-.46A3,3,0,0,0,7.4,3.79l.7-1.33a3,3,0,0,1,3.82-1.39l1.39.57A3,3,0,0,0,15.59,1.64Z"/><path class="cls-2" d="M11.57,12.75a1.49,1.49,0,1,1,1.49-1.49A1.49,1.49,0,0,1,11.57,12.75Zm0-2.25a.77.77,0,1,0,.77.76A.77.77,0,0,0,11.57,10.5Z"/><path class="cls-2" d="M17.33,18.82a1.49,1.49,0,1,1,1.49-1.49A1.49,1.49,0,0,1,17.33,18.82Zm0-2.26a.77.77,0,1,0,.77.77A.77.77,0,0,0,17.33,16.56Z"/><rect class="cls-3" x="9.21" y="13.59" width="10.65" height="0.69" rx="0.29" transform="translate(-5.49 16.09) rotate(-49.94)"/></g></g></svg>