<svg xmlns="http://www.w3.org/2000/svg" viewBox="0 0 27.01 27.01"><defs><style>.cls-1{fill:#77af0b;}</style></defs><title>replace1</title><g id="Layer_2" data-name="Layer 2"><g id="Layer_2-2" data-name="Layer 2"><path class="cls-1" d="M5.76,20l.5,2.88A11.85,11.85,0,0,1,15.07,1.72h.12L15.41.41l-.13,0A12,12,0,0,0,13.5.25,13.27,13.27,0,0,0,.25,13.5,13.14,13.14,0,0,0,5.3,23.87l-2.89-.33L1.32,24.71l6.7.56L6.83,18.88Z"/><path class="cls-1" d="M8.33,25.54.78,24.92l1.54-1.64,2.18.25A13.38,13.38,0,0,1,0,13.5,13.52,13.52,0,0,1,13.5,0a14,14,0,0,1,1.82.14L15.7.2,15.4,2,15,2a11.38,11.38,0,0,0-1.54-.12A11.67,11.67,0,0,0,1.85,13.5,11.54,11.54,0,0,0,5.9,22.29L5.49,20,7,18.35Zm-6.48-1L7.72,25l-1-5.58-.65.7.59,3.39-.51-.39A12.13,12.13,0,0,1,13.5,1.35a11.49,11.49,0,0,1,1.48.1l.14-.83A12.37,12.37,0,0,0,13.5.5a13,13,0,0,0-8,23.18l.69.54L2.51,23.8Z"/><path class="cls-1" d="M21.58,3l2.9.33,1.1-1.17-6.71-.56L20.06,8l1.07-1.15L20.64,4a11.86,11.86,0,0,1-8.82,21.26l-.1,0-.38,1.3.14,0a13.86,13.86,0,0,0,2,.17A13.28,13.28,0,0,0,26.76,13.5,13.13,13.13,0,0,0,21.58,3Z"/><path class="cls-1" d="M13.5,27a13.16,13.16,0,0,1-2.06-.18L11,26.77,11.54,25l.31.05A11.62,11.62,0,0,0,21,4.62L21.4,7l-1.49,1.6L18.56,1.37,26.11,2,24.58,3.63l-2.19-.25A13.34,13.34,0,0,1,27,13.5,13.52,13.52,0,0,1,13.5,27Zm-1.84-.65a12.51,12.51,0,0,0,1.84.15,13,13,0,0,0,13-13A12.87,12.87,0,0,0,21.42,3.23l-.71-.55,3.67.43.66-.7-5.87-.49,1,5.58.65-.7-.59-3.36.51.38A12.13,12.13,0,0,1,13.5,25.66a12,12,0,0,1-1.6-.12Z"/></g></g></svg>