<svg xmlns="http://www.w3.org/2000/svg" viewBox="0 0 973.28 973.28"><defs><style>.cls-1{fill:#7f40bd;}.cls-2{fill:#fff;}</style></defs><title>Asset 11</title><g id="Layer_2" data-name="Layer 2"><g id="Layer_1-2" data-name="Layer 1"><circle class="cls-1" cx="486.64" cy="486.64" r="486.64"/><path class="cls-2" d="M668.61,445.49c.62-72.18-60.86-138.36-137.05-147.51-1.51-.18-3.16-.45-4.91-.74A70.64,70.64,0,0,0,515,296c-15.61,0-19.79,11-20.88,17.51-1.07,6.36-.05,11.7,3,15.88,5.17,7,14.27,8.28,21.58,9.28,2.14.3,4.16.57,5.85.95,68.45,15.3,91.5,39.34,102.76,107.21.28,1.66.4,3.7.53,5.87.49,8.11,1.52,25,19.66,25h0a31.88,31.88,0,0,0,4.82-.39c16.9-2.57,16.37-18,16.11-25.41a37.21,37.21,0,0,1,0-5.37A6.73,6.73,0,0,0,668.61,445.49Z"/><path class="cls-2" d="M510.61,271.48c2,.15,3.95.29,5.55.53,112.4,17.29,164.09,70.54,178.41,183.82a64.57,64.57,0,0,1,.32,6.76c.15,8.85.44,27.27,20.21,27.65h.62c6.2,0,11.13-1.87,14.66-5.56,6.15-6.44,5.73-16,5.38-23.69-.09-1.88-.17-3.66-.15-5.21C737,339.92,636.76,234.86,521,231a8.11,8.11,0,0,0-1.4.07,8.59,8.59,0,0,1-1.38.08c-1.15,0-2.57-.1-4.08-.2-1.82-.13-3.88-.27-6-.27-18.44,0-21.94,13.1-22.39,20.91C484.76,269.6,502.22,270.87,510.61,271.48Z"/><path class="cls-2" d="M689.15,602.24c-2.39-1.83-4.86-3.71-7.18-5.58-12.27-9.87-25.32-19-38-27.78-2.62-1.83-5.24-3.65-7.85-5.49C620,552,605.45,546.51,591.71,546.51c-18.5,0-34.63,10.23-48,30.39-5.9,8.93-13,13.28-21.87,13.28-5.22,0-11.14-1.49-17.61-4.43-52.21-23.67-89.49-60-110.81-107.88-10.3-23.16-7-38.3,11.17-50.62,10.3-7,29.47-20,28.12-44.92-1.54-28.3-64-113.44-90.29-123.11-11.14-4.1-22.84-4.14-34.84-.1-30.25,10.17-51.95,28-62.77,51.63-10.46,22.82-10,49.6,1.36,77.47C279,468.78,325.18,539,383.36,597c56.95,56.74,126.94,103.22,208,138.14,7.31,3.14,15,4.86,20.57,6.11,1.91.43,3.56.79,4.76,1.12a8.14,8.14,0,0,0,2,.29h.65c38.14,0,83.94-34.86,98-74.59C729.73,633.26,707.23,616.06,689.15,602.24Z"/><path class="cls-2" d="M527.48,363.51c-6.53.16-20.12.5-24.89,14.34-2.23,6.47-2,12.09.8,16.7,4.05,6.76,11.8,8.83,18.86,10,25.58,4.1,38.72,18.25,41.35,44.52,1.22,12.25,9.47,20.8,20.06,20.8h0a21.11,21.11,0,0,0,2.38-.14c12.74-1.52,18.91-10.88,18.36-27.81.2-17.68-9-37.75-24.79-53.73S544.79,363.09,527.48,363.51Z"/></g></g></svg>