<svg xmlns="http://www.w3.org/2000/svg" viewBox="0 0 1280 1280"><defs><style>.cls-1{fill:#84b071;}.cls-2{fill:#fff;fill-rule:evenodd;}</style></defs><title>Asset 21</title><g id="Layer_2" data-name="Layer 2"><g id="Layer_1-2" data-name="Layer 1"><circle class="cls-1" cx="640" cy="640" r="640"/><path class="cls-2" d="M865.45,413.23a314.79,314.79,0,0,0-224.12-92.92c-174.63,0-316.76,142.13-316.83,316.81a316.22,316.22,0,0,0,42.29,158.39l-45,164.18,168-44.06a316.48,316.48,0,0,0,151.4,38.56h.13c174.62,0,316.76-142.13,316.83-316.82A314.9,314.9,0,0,0,865.45,413.23ZM641.33,900.69h-.11a263,263,0,0,1-134-36.71l-9.61-5.71-99.67,26.15,26.61-97.18-6.27-10A262.73,262.73,0,0,1,378,637.14C378.05,492,496.18,373.82,641.44,373.82A263.39,263.39,0,0,1,904.67,637.35C904.6,782.55,786.48,900.69,641.33,900.69ZM785.78,703.46c-7.92-4-46.84-23.11-54.1-25.75s-12.53-4-17.81,4-20.45,25.76-25.07,31-9.23,5.94-17.15,2S638.23,702.36,608,675.4c-23.53-21-39.42-46.92-44-54.84s0-11.8,3.47-16.16c8.57-10.64,17.15-21.8,19.79-27.08s1.32-9.91-.66-13.87-17.81-42.92-24.4-58.78c-6.43-15.43-13-13.34-17.82-13.59-4.61-.23-9.89-.27-15.17-.27s-13.85,2-21.11,9.9-27.71,27.08-27.71,66.05,28.37,76.6,32.33,81.89,55.82,85.24,135.23,119.53A454.73,454.73,0,0,0,693,784.86c19,6,36.22,5.17,49.87,3.14,15.21-2.28,46.83-19.16,53.43-37.65s6.6-34.34,4.61-37.64S793.69,707.43,785.78,703.46Z"/></g></g></svg>